<svg xmlns="http://www.w3.org/2000/svg" width="479.134" height="406.605" viewBox="0 0 479.134 406.605"><defs><style>.a{fill:#f5e5dd;}</style></defs><path class="a" d="M141.855,351.148C85.868,380.235,44.231,435.534,31.737,497.371c-5.157,25.548-5.487,52.518,2.671,77.274,9.244,28.04,28.861,51.738,51.738,70.4,59.635,48.633,140.482,64.775,217.311,60.531,61.063-3.37,124.849-20.593,166.678-65.2s52.333-121.808,10.071-166.013c-16.841-17.61-39.707-28.294-57.7-44.731-43.372-39.6-59.768-112.35-116.559-127.353-17.408-4.6-35.845-2.5-53.559.734-47.928,8.747-85.969,35.365-110.529,48.13" transform="translate(-28.041 -299.621)"/></svg>