<svg xmlns="http://www.w3.org/2000/svg" width="22.727" height="24" viewBox="0 0 22.727 24"><defs><style>.a{fill:#20304f;}</style></defs><g transform="translate(-106.75 -411.481)"><path class="a" d="M.846-1H19.881A1.848,1.848,0,0,1,21.727.846V18.523a1.848,1.848,0,0,1-1.846,1.846H.846A1.848,1.848,0,0,1-1,18.523V.846A1.848,1.848,0,0,1,.846-1ZM19.881,18.523V.846H.845V18.523Z" transform="translate(107.75 415.112)"/><g transform="translate(112.098 411.481)"><path class="a" d="M-.077,6.109A.923.923,0,0,1-1,5.186V-.077A.923.923,0,0,1-.077-1a.923.923,0,0,1,.923.923V5.186A.923.923,0,0,1-.077,6.109Z" transform="translate(1 1)"/><path class="a" d="M-.077,6.109A.923.923,0,0,1-1,5.186V-.077A.923.923,0,0,1-.077-1a.923.923,0,0,1,.923.923V5.186A.923.923,0,0,1-.077,6.109Z" transform="translate(11.186 1)"/></g><path class="a" d="M20.8.846H-.077A.923.923,0,0,1-1-.077.923.923,0,0,1-.077-1H20.8a.923.923,0,0,1,.923.923A.923.923,0,0,1,20.8.846Z" transform="translate(107.75 424.11)"/><g transform="translate(112.211 427.637)"><path class="a" d="M1.508.846H-.077A.923.923,0,0,1-1-.077.923.923,0,0,1-.077-1H1.508a.923.923,0,0,1,.923.923A.923.923,0,0,1,1.508.846Z" transform="translate(1 1)"/><path class="a" d="M4.592.846H-.077A.923.923,0,0,1-1-.077.923.923,0,0,1-.077-1H4.592a.923.923,0,0,1,.923.923A.923.923,0,0,1,4.592.846Z" transform="translate(6.291 1)"/></g></g></svg>