<svg xmlns="http://www.w3.org/2000/svg" width="31.994" height="32" viewBox="0 0 31.994 32"><defs><style>.a{fill:#cb7e58;}</style></defs><path class="a" d="M57.734,64.009c-1.394,0-3.353-.5-6.286-2.143a40.869,40.869,0,0,1-9.872-7.384,37.464,37.464,0,0,1-7.414-9.869c-2.631-4.786-2.183-7.294-1.681-8.367A6.679,6.679,0,0,1,35.1,33.437a12.593,12.593,0,0,1,2.046-1.086l.2-.086a1.912,1.912,0,0,1,1.568-.143,4.592,4.592,0,0,1,1.49,1.143A24.764,24.764,0,0,1,44.126,38.8a5.51,5.51,0,0,1,.731,2.265,3.579,3.579,0,0,1-.911,2.129c-.094.128-.186.25-.276.369-.544.714-.663.921-.584,1.289a13.55,13.55,0,0,0,3.3,4.894,12.988,12.988,0,0,0,4.837,3.219c.384.082.6-.042,1.332-.605.106-.081.214-.164.328-.248a3.6,3.6,0,0,1,2.161-.967h0a5.176,5.176,0,0,1,2.276.8,27.287,27.287,0,0,1,5.51,3.7,4.591,4.591,0,0,1,1.146,1.486,1.927,1.927,0,0,1-.143,1.571c-.026.059-.056.124-.086.2a12.607,12.607,0,0,1-1.092,2.041,6.68,6.68,0,0,1-2.813,2.613A4.816,4.816,0,0,1,57.734,64.009Z" transform="translate(-32.098 -32.009)"/></svg>