<svg xmlns="http://www.w3.org/2000/svg" width="32" height="32" viewBox="0 0 32 32"><defs><style>.a{fill:#20304f;}</style></defs><g transform="translate(-32 -32)"><path class="a" d="M54.666,34.666a6.687,6.687,0,0,1,6.667,6.667V54.666a6.687,6.687,0,0,1-6.667,6.667H41.334a6.687,6.687,0,0,1-6.667-6.667V41.334a6.687,6.687,0,0,1,6.667-6.667H54.666m0-2.666H41.334A9.361,9.361,0,0,0,32,41.334V54.666A9.361,9.361,0,0,0,41.334,64H54.666A9.361,9.361,0,0,0,64,54.666V41.334A9.361,9.361,0,0,0,54.666,32Z"/><path class="a" d="M351.33,110.67a2,2,0,1,1,1.415-.585A2,2,0,0,1,351.33,110.67Z" transform="translate(-294.664 -69.336)"/><path class="a" d="M152,146.666A5.334,5.334,0,1,1,146.666,152,5.334,5.334,0,0,1,152,146.666M152,144a8,8,0,1,0,8,8A8,8,0,0,0,152,144Z" transform="translate(-104 -104)"/></g></svg>