<svg xmlns="http://www.w3.org/2000/svg" width="16" height="16" viewBox="0 0 16 16"><defs><style>.a{fill:#fff;}</style></defs><g transform="translate(-138.958 -411.157)"><path class="a" d="M-.111,15A.889.889,0,0,1-1,14.111V-.111A.889.889,0,0,1-.111-1a.889.889,0,0,1,.889.889V14.111A.889.889,0,0,1-.111,15Z" transform="translate(147.069 412.157)"/><path class="a" d="M14.111.778H-.111A.889.889,0,0,1-1-.111.889.889,0,0,1-.111-1H14.111A.889.889,0,0,1,15-.111.889.889,0,0,1,14.111.778Z" transform="translate(139.958 419.268)"/></g></svg>