<svg xmlns="http://www.w3.org/2000/svg" width="20.653" height="24" viewBox="0 0 20.653 24"><defs><style>.a{fill:#c7cede;}</style></defs><g transform="translate(-207.889 -412.137)"><path class="a" d="M4.764-1A5.764,5.764,0,1,1-1,4.764,5.77,5.77,0,0,1,4.764-1Zm0,9.682A3.918,3.918,0,1,0,.846,4.764,3.922,3.922,0,0,0,4.764,8.682Z" transform="translate(213.451 413.137)"/><path class="a" d="M218.215,416.582a10.326,10.326,0,0,1,10.326,10.326.923.923,0,0,1-.923.923H208.812a.923.923,0,0,1-.923-.923,10.326,10.326,0,0,1,10.326-10.326Zm8.43,9.4a8.481,8.481,0,0,0-16.861,0Z" transform="translate(0 8.306)"/></g></svg>