<svg xmlns="http://www.w3.org/2000/svg" width="18.568" height="12" viewBox="0 0 18.568 12"><defs><style>.a{fill:#20304f;}</style></defs><g transform="translate(-66.777 -88.884)"><path class="a" d="M8.479.395H-.553A.947.947,0,0,1-1.5-.553.947.947,0,0,1-.553-1.5H8.479a.947.947,0,0,1,.947.947A.947.947,0,0,1,8.479.395Z" transform="translate(68.277 90.384)"/><path class="a" d="M16.121.395H-.553A.947.947,0,0,1-1.5-.553.947.947,0,0,1-.553-1.5H16.121a.947.947,0,0,1,.947.947A.947.947,0,0,1,16.121.395Z" transform="translate(68.277 95.437)"/><path class="a" d="M8.479.395H-.553A.947.947,0,0,1-1.5-.553.947.947,0,0,1-.553-1.5H8.479a.947.947,0,0,1,.947.947A.947.947,0,0,1,8.479.395Z" transform="translate(75.919 100.489)"/></g></svg>