<svg xmlns="http://www.w3.org/2000/svg" width="32" height="32" viewBox="0 0 32 32"><defs><style>.a{fill:#cb7e58;fill-rule:evenodd;}</style></defs><path class="a" d="M59.338,36.649A15.9,15.9,0,0,0,34.261,55.785L32,64l8.446-2.2a15.974,15.974,0,0,0,7.614,1.929h.006A15.919,15.919,0,0,0,64,47.865a15.727,15.727,0,0,0-4.662-11.216Zm-11.271,24.4h-.006a13.268,13.268,0,0,1-6.74-1.837l-.484-.286-5.012,1.309,1.338-4.864-.315-.5a13.254,13.254,0,1,1,11.219,6.178Zm7.264-9.871c-.4-.2-2.357-1.157-2.72-1.289s-.631-.2-.9.2-1.029,1.286-1.261,1.554-.464.3-.862.1a10.89,10.89,0,0,1-3.2-1.966,11.948,11.948,0,0,1-2.214-2.744c-.232-.4-.025-.611.174-.809.179-.178.4-.463.6-.694a2.68,2.68,0,0,0,.4-.661.728.728,0,0,0-.033-.694c-.1-.2-.9-2.149-1.227-2.942-.324-.773-.651-.668-.9-.68s-.5-.014-.764-.014a1.466,1.466,0,0,0-1.061.5,4.44,4.44,0,0,0-1.394,3.306,7.709,7.709,0,0,0,1.626,4.1c.2.264,2.807,4.266,6.8,5.983a23.079,23.079,0,0,0,2.27.834,5.481,5.481,0,0,0,2.507.157,4.1,4.1,0,0,0,2.688-1.884,3.308,3.308,0,0,0,.232-1.884C55.995,51.473,55.729,51.373,55.331,51.175Z" transform="translate(-32 -31.999)"/></svg>