<svg xmlns="http://www.w3.org/2000/svg" width="34.133" height="32" viewBox="0 0 34.133 32"><defs><style>.a{fill:#cb7e58;}</style></defs><g transform="translate(0 -16)"><g transform="translate(0 16)"><g transform="translate(0 0)"><path class="a" d="M34.133,29.867C34.133,22.221,27.433,16,19.2,16S4.267,22.221,4.279,30.031c0,.028.395,2.79-.851,4.247a2.918,2.918,0,0,1-2.362.922A1.067,1.067,0,0,0,0,36.267c0,2.957,2.191,5.011,6.611,6.208a4.258,4.258,0,1,0,8.322,1.259c0-.036-.011-.068-.011-.1,1.338.068,2.756.1,4.277.1a4.267,4.267,0,1,0,7.936-2.142A13.665,13.665,0,0,0,34.133,29.867Zm-8.578,10.17a4.2,4.2,0,0,0-2.089-.57,4.25,4.25,0,0,0-3.657,2.106c-.2.009-.405.028-.61.028-1.8,0-3.422-.066-4.947-.16a4.228,4.228,0,0,0-6.441-.855c-3.1-.734-4.983-1.856-5.517-3.362A4.659,4.659,0,0,0,5.05,35.665c1.894-2.212,1.363-5.8,1.35-5.8,0-6.47,5.741-11.733,12.8-11.733S32,23.4,32,29.867A11.6,11.6,0,0,1,25.555,40.036Z" transform="translate(0 -16)"/></g></g><g transform="translate(13.899 25.6)"><g transform="translate(0 0)"><path class="a" d="M209.557,160h-.021a1.058,1.058,0,0,0-1.056,1.067A1.072,1.072,0,1,0,209.557,160Z" transform="translate(-208.48 -160)"/></g></g><g transform="translate(22.432 25.6)"><g transform="translate(0 0)"><path class="a" d="M337.557,160h-.021a1.058,1.058,0,0,0-1.056,1.067A1.072,1.072,0,1,0,337.557,160Z" transform="translate(-336.48 -160)"/></g></g><g transform="translate(12.8 30.933)"><g transform="translate(0 0)"><path class="a" d="M203.963,240.023a1.069,1.069,0,0,0-1.276.806,4.4,4.4,0,0,1-8.582,0,1.067,1.067,0,1,0-2.082.469,6.534,6.534,0,0,0,12.749,0A1.067,1.067,0,0,0,203.963,240.023Z" transform="translate(-191.997 -239.997)"/></g></g></g></svg>