<svg xmlns="http://www.w3.org/2000/svg" width="18.822" height="24" viewBox="0 0 18.822 24"><defs><style>.a{fill:#20304f;}</style></defs><g transform="translate(-173.604 -411.481)"><path class="a" d="M191.5,435.481H174.527a.923.923,0,0,1-.923-.923V412.4a.923.923,0,0,1,.923-.923h9.2a.923.923,0,0,1,.653.27l7.781,7.781a.923.923,0,0,1,.27.653v14.373A.923.923,0,0,1,191.5,435.481Zm-16.053-1.846h15.13V420.567l-7.24-7.24h-7.89Z" transform="translate(0 0)"/><path class="a" d="M185.694,421.108h-7.781a.923.923,0,0,1-.923-.923V412.4a.923.923,0,0,1,1.576-.653l7.781,7.781a.923.923,0,0,1-.653,1.576Zm-6.858-1.846h4.629l-4.629-4.629Z" transform="translate(5.81)"/><path class="a" d="M3.715.846H-.077A.923.923,0,0,1-1-.077.923.923,0,0,1-.077-1H3.715a.923.923,0,0,1,.923.923A.923.923,0,0,1,3.715.846Z" transform="translate(179.301 425.015)"/><path class="a" d="M7.506.846H-.077A.923.923,0,0,1-1-.077.923.923,0,0,1-.077-1H7.506a.923.923,0,0,1,.923.923A.923.923,0,0,1,7.506.846Z" transform="translate(179.301 429.768)"/></g></svg>